<mxfile host="app.diagrams.net" agent="Mozilla/5.0 (Windows NT 10.0; Win64; x64) AppleWebKit/537.36 (KHTML, like Gecko) Chrome/130.0.0.0 Safari/537.36 Edg/130.0.0.0" version="24.7.16">
  <diagram name="Page-1" id="LmDqdwV3p4tGnduGnlLP">
    <mxGraphModel dx="1232" dy="1183" grid="1" gridSize="10" guides="1" tooltips="1" connect="1" arrows="1" fold="1" page="1" pageScale="1" pageWidth="1169" pageHeight="827" math="0" shadow="0">
      <root>
        <mxCell id="0" />
        <mxCell id="1" parent="0" />
        <mxCell id="z6u3Nq3AvBNvkX0ESJgC-3" style="edgeStyle=orthogonalEdgeStyle;rounded=0;orthogonalLoop=1;jettySize=auto;html=1;endArrow=block;endFill=1;" edge="1" parent="1" source="z6u3Nq3AvBNvkX0ESJgC-1" target="z6u3Nq3AvBNvkX0ESJgC-2">
          <mxGeometry relative="1" as="geometry" />
        </mxCell>
        <mxCell id="z6u3Nq3AvBNvkX0ESJgC-1" value="Environment variables&lt;div&gt;(client secret)&lt;/div&gt;" style="rounded=1;whiteSpace=wrap;html=1;fillColor=#dae8fc;strokeColor=#6c8ebf;fontFamily=Tahoma;fontSize=14;gradientColor=#7ea6e0;" vertex="1" parent="1">
          <mxGeometry x="160" y="120" width="160" height="80" as="geometry" />
        </mxCell>
        <mxCell id="z6u3Nq3AvBNvkX0ESJgC-5" style="edgeStyle=orthogonalEdgeStyle;rounded=0;orthogonalLoop=1;jettySize=auto;html=1;" edge="1" parent="1" source="z6u3Nq3AvBNvkX0ESJgC-2" target="z6u3Nq3AvBNvkX0ESJgC-4">
          <mxGeometry relative="1" as="geometry" />
        </mxCell>
        <mxCell id="z6u3Nq3AvBNvkX0ESJgC-2" value="Workload Identity&lt;div&gt;(Kubernetes)&lt;/div&gt;" style="rounded=1;whiteSpace=wrap;html=1;fillColor=#d5e8d4;strokeColor=#82b366;fontFamily=Tahoma;fontSize=14;gradientColor=#97d077;" vertex="1" parent="1">
          <mxGeometry x="360" y="120" width="160" height="80" as="geometry" />
        </mxCell>
        <mxCell id="z6u3Nq3AvBNvkX0ESJgC-13" style="edgeStyle=orthogonalEdgeStyle;rounded=0;orthogonalLoop=1;jettySize=auto;html=1;entryX=0.5;entryY=0;entryDx=0;entryDy=0;" edge="1" parent="1" source="z6u3Nq3AvBNvkX0ESJgC-4" target="z6u3Nq3AvBNvkX0ESJgC-7">
          <mxGeometry relative="1" as="geometry" />
        </mxCell>
        <mxCell id="z6u3Nq3AvBNvkX0ESJgC-4" value="Managed Identity" style="rounded=1;whiteSpace=wrap;html=1;fillColor=#f8cecc;strokeColor=#b85450;fontFamily=Tahoma;fontSize=14;gradientColor=#ea6b66;" vertex="1" parent="1">
          <mxGeometry x="560" y="120" width="160" height="80" as="geometry" />
        </mxCell>
        <mxCell id="z6u3Nq3AvBNvkX0ESJgC-15" style="edgeStyle=orthogonalEdgeStyle;rounded=0;orthogonalLoop=1;jettySize=auto;html=1;entryX=1;entryY=0.5;entryDx=0;entryDy=0;" edge="1" parent="1" source="z6u3Nq3AvBNvkX0ESJgC-7" target="z6u3Nq3AvBNvkX0ESJgC-8">
          <mxGeometry relative="1" as="geometry" />
        </mxCell>
        <mxCell id="z6u3Nq3AvBNvkX0ESJgC-7" value="Shared Token Cache" style="rounded=1;whiteSpace=wrap;html=1;fillColor=#e6d0de;strokeColor=#996185;fontFamily=Tahoma;fontSize=14;gradientColor=#d5739d;" vertex="1" parent="1">
          <mxGeometry x="560" y="240" width="160" height="80" as="geometry" />
        </mxCell>
        <mxCell id="z6u3Nq3AvBNvkX0ESJgC-16" style="edgeStyle=orthogonalEdgeStyle;rounded=0;orthogonalLoop=1;jettySize=auto;html=1;entryX=1;entryY=0.5;entryDx=0;entryDy=0;" edge="1" parent="1" source="z6u3Nq3AvBNvkX0ESJgC-8" target="z6u3Nq3AvBNvkX0ESJgC-9">
          <mxGeometry relative="1" as="geometry" />
        </mxCell>
        <mxCell id="z6u3Nq3AvBNvkX0ESJgC-8" value="Visual Studio" style="rounded=1;whiteSpace=wrap;html=1;fillColor=#f5f5f5;strokeColor=#666666;fontFamily=Tahoma;fontSize=14;gradientColor=#b3b3b3;" vertex="1" parent="1">
          <mxGeometry x="360" y="240" width="160" height="80" as="geometry" />
        </mxCell>
        <mxCell id="z6u3Nq3AvBNvkX0ESJgC-17" style="edgeStyle=orthogonalEdgeStyle;rounded=0;orthogonalLoop=1;jettySize=auto;html=1;entryX=0.5;entryY=0;entryDx=0;entryDy=0;" edge="1" parent="1" source="z6u3Nq3AvBNvkX0ESJgC-9" target="z6u3Nq3AvBNvkX0ESJgC-10">
          <mxGeometry relative="1" as="geometry" />
        </mxCell>
        <mxCell id="z6u3Nq3AvBNvkX0ESJgC-9" value="Visual Studio Code" style="rounded=1;whiteSpace=wrap;html=1;fontFamily=Tahoma;fontSize=14;fillColor=#fff2cc;gradientColor=#ffd966;strokeColor=#d6b656;" vertex="1" parent="1">
          <mxGeometry x="160" y="240" width="160" height="80" as="geometry" />
        </mxCell>
        <mxCell id="z6u3Nq3AvBNvkX0ESJgC-18" style="edgeStyle=orthogonalEdgeStyle;rounded=0;orthogonalLoop=1;jettySize=auto;html=1;entryX=0;entryY=0.5;entryDx=0;entryDy=0;" edge="1" parent="1" source="z6u3Nq3AvBNvkX0ESJgC-10" target="z6u3Nq3AvBNvkX0ESJgC-11">
          <mxGeometry relative="1" as="geometry" />
        </mxCell>
        <mxCell id="z6u3Nq3AvBNvkX0ESJgC-10" value="Azure CLI" style="rounded=1;whiteSpace=wrap;html=1;fillColor=#dae8fc;strokeColor=#6c8ebf;fontFamily=Tahoma;fontSize=14;gradientColor=#7ea6e0;" vertex="1" parent="1">
          <mxGeometry x="160" y="360" width="160" height="80" as="geometry" />
        </mxCell>
        <mxCell id="z6u3Nq3AvBNvkX0ESJgC-19" style="edgeStyle=orthogonalEdgeStyle;rounded=0;orthogonalLoop=1;jettySize=auto;html=1;entryX=0;entryY=0.5;entryDx=0;entryDy=0;" edge="1" parent="1" source="z6u3Nq3AvBNvkX0ESJgC-11" target="z6u3Nq3AvBNvkX0ESJgC-12">
          <mxGeometry relative="1" as="geometry" />
        </mxCell>
        <mxCell id="z6u3Nq3AvBNvkX0ESJgC-11" value="Azure PowerShell" style="rounded=1;whiteSpace=wrap;html=1;fillColor=#f8cecc;strokeColor=#b85450;fontFamily=Tahoma;fontSize=14;gradientColor=#ea6b66;" vertex="1" parent="1">
          <mxGeometry x="360" y="360" width="160" height="80" as="geometry" />
        </mxCell>
        <mxCell id="z6u3Nq3AvBNvkX0ESJgC-21" style="edgeStyle=orthogonalEdgeStyle;rounded=0;orthogonalLoop=1;jettySize=auto;html=1;entryX=0.5;entryY=0;entryDx=0;entryDy=0;" edge="1" parent="1" source="z6u3Nq3AvBNvkX0ESJgC-12" target="z6u3Nq3AvBNvkX0ESJgC-20">
          <mxGeometry relative="1" as="geometry" />
        </mxCell>
        <mxCell id="z6u3Nq3AvBNvkX0ESJgC-12" value="Azure Developer CLI" style="rounded=1;whiteSpace=wrap;html=1;fillColor=#d5e8d4;strokeColor=#82b366;fontFamily=Tahoma;fontSize=14;gradientColor=#97d077;" vertex="1" parent="1">
          <mxGeometry x="560" y="360" width="160" height="80" as="geometry" />
        </mxCell>
        <mxCell id="z6u3Nq3AvBNvkX0ESJgC-20" value="Interactive Browser" style="rounded=1;whiteSpace=wrap;html=1;fillColor=#f5f5f5;strokeColor=#666666;fontFamily=Tahoma;fontSize=14;gradientColor=#b3b3b3;" vertex="1" parent="1">
          <mxGeometry x="560" y="480" width="160" height="80" as="geometry" />
        </mxCell>
      </root>
    </mxGraphModel>
  </diagram>
</mxfile>
